HIERARCHY
ROOT hip
{
	OFFSET 0.000000 0.000000 0.000000 
	CHANNELS 6 Xposition Yposition Zposition Xrotation Zrotation Yrotation
	JOINT abdomen
	{
		OFFSET 0.000000 3.402643 0.000000 
		CHANNELS 3 Xrotation Zrotation Yrotation
		JOINT chest
		{
			OFFSET 0.000000 8.438565 -0.680529 
			CHANNELS 3 Xrotation Zrotation Yrotation
			JOINT neck
			{
				OFFSET 0.000000 10.207942 -0.272212 
				CHANNELS 3 Xrotation Zrotation Yrotation
				JOINT head
				{
					OFFSET 0.000000 3.130431 0.000000 
					CHANNELS 3 Xrotation Zrotation Yrotation
					End Site
					{
						OFFSET 0.000000 3.130435 0.000000 
					}
				}
			}
			JOINT lCollar
			{
				OFFSET 3.470700 6.669187 -0.816635 
				CHANNELS 3 Yrotation Zrotation Xrotation
				JOINT lShldr
				{
					OFFSET 3.198488 0.000000 0.000000 
					CHANNELS 3 Zrotation Yrotation Xrotation
					JOINT lForeArm
					{
						OFFSET 10.139888 0.000000 0.000000 
						CHANNELS 3 Yrotation Zrotation Xrotation
						JOINT lHand
						{
							OFFSET 8.370511 0.000000 0.000000 
							CHANNELS 3 Zrotation Yrotation Xrotation
							End Site
							{
								OFFSET 4.083176 0.000000 0.000000 
							}
						}
					}
				}
			}
			JOINT rCollar
			{
				OFFSET -3.470700 6.669187 -0.816635 
				CHANNELS 3 Yrotation Zrotation Xrotation
				JOINT rShldr
				{
					OFFSET -3.198488 0.000000 0.000000 
					CHANNELS 3 Zrotation Yrotation Xrotation
					JOINT rForeArm
					{
						OFFSET -10.139888 0.000000 0.000000 
						CHANNELS 3 Yrotation Zrotation Xrotation
						JOINT rHand
						{
							OFFSET -8.370511 0.000000 0.000000 
							CHANNELS 3 Zrotation Yrotation Xrotation
							End Site
							{
								OFFSET -4.083176 0.000000 0.000000 
							}
						}
					}
				}
			}
		}
	}
	JOINT lThigh
	{
		OFFSET 5.308129 -1.633274 1.361059 
		CHANNELS 3 Xrotation Zrotation Yrotation
		JOINT lShin
		{
			OFFSET -2.041588 -20.007561 0.000000 
			CHANNELS 3 Xrotation Zrotation Yrotation
			JOINT lFoot
			{
				OFFSET 0.000000 -19.190928 -1.224953 
				CHANNELS 3 Xrotation Yrotation Zrotation
				End Site
				{
					OFFSET 0.000000 -2.449906 4.627600 
				}
			}
		}
	}
	JOINT rThigh
	{
		OFFSET -5.308129 -1.633274 1.361059 
		CHANNELS 3 Xrotation Zrotation Yrotation
		JOINT rShin
		{
			OFFSET 2.041588 -20.007561 0.000000 
			CHANNELS 3 Xrotation Zrotation Yrotation
			JOINT rFoot
			{
				OFFSET 0.000000 -19.190928 -1.224953 
				CHANNELS 3 Xrotation Yrotation Zrotation
				End Site
				{
					OFFSET 0.000000 -2.449906 4.627600 
				}
			}
		}
	}
}
MOTION
Frames: 18
Frame Time: 0.033333
-46.050953 6.172764 -53.740482 -0.712891 6.142579 57.226563 0.000000 0.000000 0.000000 14.257813 3.232422 9.092348 -8.447267 0.000000 0.000000 9.492188 -1.933594 28.779295 -2.812500 -0.087891 -0.009766 -64.697266 -2.314453 -48.583988 -61.874996 -41.435547 -9.573615 -11.884765 -9.755859 -18.107121 2.802734 0.078125 -0.009779 47.148441 20.029297 -58.629463 47.880863 14.218750 -0.373492 16.357422 32.626957 -22.191999 3.973526 17.283911 11.067648 5.372652 -6.292300 0.997828 0.875354 -2.556399 -20.401882 10.433935 -23.667641 -25.880329 15.435179 8.851014 1.624527 -9.248433 2.122820 6.026563 
-45.960758 6.149539 -53.779568 -0.712891 6.669922 58.095703 0.000000 0.000000 0.000000 14.082031 3.232422 8.906800 -8.447267 0.000000 0.000000 10.019532 -1.757813 28.066107 -2.812500 -0.087891 -0.009766 -65.058594 -2.158203 -49.296875 -62.304684 -41.474613 -10.325562 -13.476563 -9.824219 -18.701172 2.802734 0.078125 -0.009779 50.224609 20.263674 -54.746094 52.001953 15.791015 -0.937500 18.789061 32.011719 -17.119137 3.990942 16.947258 10.497696 5.371659 -6.293281 1.007528 0.905090 -3.167337 -20.235622 11.364690 -23.699938 -26.202948 15.170961 8.576770 1.562343 -9.162075 1.100764 6.519240 
-45.924732 6.070341 -53.790558 -1.240234 6.845703 57.676945 0.000000 0.000000 0.000000 14.257813 3.398438 10.361329 -8.447267 0.000000 0.000000 10.371094 -1.582031 27.539061 -2.812500 -0.087891 -0.009766 -65.234375 -2.539063 -50.527344 -62.705078 -41.933594 -10.657538 -14.179688 -10.029297 -19.003906 2.802734 0.078125 -0.009779 52.451176 20.126953 -51.471249 54.560547 16.777344 -1.467663 18.847656 30.781248 -13.867187 4.520678 17.167753 11.281369 5.343769 -6.087928 1.172189 0.643785 -3.548069 -20.200945 11.549540 -23.708912 -24.797380 14.998494 8.569647 1.395508 -9.133728 0.383735 6.771626 
-45.862080 5.979243 -53.827492 -1.601563 7.021484 57.988277 0.000000 0.000000 0.000000 14.257813 3.574219 11.641235 -8.447267 0.000000 0.000000 10.546875 -1.406250 26.308355 -2.812500 -0.087891 -0.009766 -65.097649 -2.578125 -53.682079 -61.503906 -41.689453 -10.449218 -14.033203 -9.316406 -18.662111 2.802734 0.078125 -0.009779 55.214844 19.482422 -47.871094 57.705078 18.261719 -1.751106 18.369141 29.179688 -8.628050 5.074282 17.023588 11.492078 5.345057 -6.089491 1.337857 0.410370 -4.177679 -19.903383 11.988331 -23.639933 -23.615818 14.964794 8.615891 0.853055 -9.068541 -0.272792 7.052275 
-45.796700 5.896760 -53.847435 -1.953125 7.373047 58.105473 0.000000 0.000000 0.000000 14.257813 3.398438 10.712891 -8.447267 0.000000 0.000000 11.777343 -0.878906 26.835938 -2.812500 -0.087891 -0.009766 -67.324219 -2.246094 -47.764057 -64.501953 -43.095703 -11.311687 -2.968750 -10.361329 -18.203123 2.802734 0.078125 -0.009779 60.488277 19.062502 -38.222656 63.115238 20.585938 -3.157730 9.980468 28.837889 -1.074219 5.555372 16.942690 10.986655 5.352113 -6.076387 1.697918 0.295002 -4.718793 -19.947330 12.915051 -23.863476 -23.257040 14.985324 8.958313 0.388489 -9.235996 -1.351894 7.137841 
-45.702774 5.825606 -53.861595 -2.490234 7.724609 57.675785 0.000000 0.000000 0.000000 14.082031 3.408203 10.000580 -8.447267 0.000000 0.000000 13.007813 -0.527344 27.548737 -2.812500 -0.087891 -0.009766 -69.355469 -1.904297 -40.947262 -67.734375 -44.531254 -12.431641 7.255858 -11.669923 -17.070311 2.802734 0.078125 -0.009779 64.941406 17.226563 -27.675783 68.759766 22.617188 -5.042818 1.464844 28.222658 6.430401 6.091292 17.321012 11.438087 5.346423 -6.091166 1.513270 0.370282 -4.947929 -19.816742 13.401863 -23.490555 -22.558908 15.051371 8.846074 0.374115 -9.484785 -2.257095 7.087455 
-45.685658 5.731790 -53.850269 -3.017578 7.890625 56.708988 0.000000 0.000000 0.000000 14.082031 3.408203 9.473236 -8.447267 0.000000 0.000000 13.886719 -0.351563 28.964783 -2.812500 -0.087891 -0.009766 -71.201172 -1.386719 -33.603748 -71.542969 -45.878906 -13.889475 15.722655 -13.193359 -15.039063 2.802734 0.078125 -0.009779 67.500000 15.712892 -19.821573 71.767578 23.818357 -6.044922 -5.244141 28.183594 13.378908 6.483745 17.909706 12.086226 5.375151 -6.295537 1.348629 0.122204 -5.063270 -20.061279 13.429878 -23.313534 -21.797472 14.974756 8.622710 0.359060 -9.671512 -2.100240 6.968981 
-45.665722 5.663469 -53.824657 -3.554688 7.714844 55.595703 0.000000 0.000000 0.000000 13.906250 3.408203 8.935456 -8.447267 0.000000 0.000000 14.765624 -0.175781 30.380859 -2.812500 -0.087891 -0.009766 -72.695305 -0.869141 -26.259914 -75.527344 -47.109375 -15.507813 24.736328 -14.628906 -12.587890 2.802734 0.078125 -0.009779 69.033203 14.345702 -13.935549 73.212891 24.755859 -6.302917 -13.164063 27.656250 18.740236 6.782036 18.352343 12.343905 5.373846 -6.293953 1.173226 0.287637 -5.029171 -20.237705 13.651843 -22.851374 -20.994179 14.744267 8.696803 0.145783 -9.843809 -2.020050 6.813827 
-45.682823 5.603645 -53.790558 -3.906250 7.539063 54.326172 0.000000 0.000000 0.000000 13.906250 3.408203 8.408117 -8.447267 0.000000 0.000000 15.458984 0.000000 31.816408 -2.812500 -0.087891 -0.009766 -73.847656 0.185547 -19.072275 -79.023438 -48.486328 -16.933594 35.458981 -15.517577 -10.419922 2.802734 0.078125 -0.009779 70.039063 13.320313 -8.857422 73.369141 25.253908 -6.068619 -21.494141 28.095701 22.138674 7.164550 19.126068 12.856168 5.458378 -6.192870 0.974155 0.125570 -4.377677 -20.389301 13.393780 -22.232738 -20.141890 14.595779 8.607522 -0.046172 -9.850284 -1.937440 6.648483 
-45.671501 5.600812 -53.773449 -3.906250 7.539063 54.501957 0.000000 0.000000 0.000000 13.730470 3.242188 6.426334 -8.447267 0.000000 0.000000 15.996093 -0.175781 33.369137 -2.812500 -0.087891 -0.009766 -74.345703 2.304688 -11.171479 -82.294922 -49.423824 -18.439848 45.781250 -16.230469 -8.271484 2.802734 0.078125 -0.009779 71.210938 12.666015 -4.304499 74.111328 25.878906 -6.264029 -27.646482 28.681637 26.108204 6.804073 19.469450 12.326530 5.458401 -6.192848 0.974155 0.192124 -4.082104 -20.636591 13.855352 -22.157391 -20.871279 14.555811 8.685204 -0.246294 -9.861967 -1.646703 6.215952 
-45.657219 5.595148 -53.756348 -4.082031 7.539063 54.483704 0.000000 0.000000 0.000000 13.554688 3.408203 4.522065 -8.447267 0.000000 0.000000 16.347654 -0.351562 34.921883 -2.812500 -0.087891 -0.009766 -73.779297 4.980468 -2.196418 -87.333984 -50.781250 -20.812748 55.966797 -17.841799 -7.382813 2.802734 0.078125 -0.009779 72.216797 12.011720 0.031331 75.322266 26.494141 -6.781700 -32.236328 29.716797 29.623981 6.598656 19.751474 11.634979 5.504039 -6.424674 0.972324 0.122679 -4.029175 -20.820999 14.020639 -21.815233 -21.543770 14.456463 8.849889 -0.220089 -10.022724 -1.153435 6.054852 
-45.637283 5.597977 -53.745010 -4.082031 7.539063 54.483704 0.000000 0.000000 0.000000 13.378907 3.417969 4.512300 -8.447267 0.000000 0.000000 16.523436 -0.351563 34.921875 -2.812500 -0.087891 -0.009766 -73.789063 5.156250 -2.196388 -87.333984 -50.781250 -20.812748 56.142582 -17.822268 -7.376036 2.802734 0.078125 -0.009779 72.216797 12.011720 0.207112 75.322266 26.503906 -6.957482 -32.412113 29.707029 29.609371 6.610898 19.930950 11.659472 5.504034 -6.424676 0.972324 0.182481 -3.969201 -20.969027 13.901517 -21.695839 -21.363022 14.087470 8.431391 -0.297984 -9.857296 -1.463313 6.109447 
-45.614502 5.597977 -53.739231 -4.082031 7.539063 54.307919 0.000000 0.000000 0.000000 13.203124 3.417969 4.501953 -8.447267 0.000000 0.000000 16.523436 -0.351563 35.097656 -2.812500 -0.087891 -0.009766 -73.613281 5.166016 -2.196385 -87.343750 -50.781250 -20.988529 56.132813 -17.646484 -7.551788 2.802734 0.078125 -0.009779 72.207031 12.011719 0.382892 75.322266 26.503906 -6.957482 -32.392578 29.531252 29.433594 6.610882 19.930948 11.659477 5.451443 -6.196082 0.798531 0.144487 -3.856685 -20.755623 14.116849 -21.569016 -21.346096 14.030225 8.520187 -0.149437 -9.867782 -1.716279 6.182411 
-45.597507 5.595148 -53.736397 -4.082031 7.539063 54.307919 0.000000 0.000000 0.000000 13.027345 3.417969 4.492770 -8.447267 0.000000 0.000000 16.523436 -0.351563 35.097656 -2.812500 -0.087891 -0.009766 -73.603516 5.166016 -2.021484 -87.128906 -50.771488 -20.744389 56.132813 -17.646484 -7.551788 2.802734 0.078125 -0.009779 72.207031 12.011719 0.382892 75.244141 26.464844 -6.977008 -32.568359 29.511721 29.433594 6.610884 19.930950 11.659477 5.451442 -6.196082 0.798531 0.144485 -3.856685 -20.755623 14.016240 -21.635391 -21.146994 13.795946 8.578833 -0.500720 -9.689841 -1.576189 6.237617 
-45.580406 5.595148 -53.736397 -4.082031 7.539063 54.307919 0.000000 0.000000 0.000000 12.851563 3.251953 4.434148 -8.447267 0.000000 0.000000 16.699219 -0.351563 35.097660 -2.812500 -0.087891 -0.009766 -73.603516 5.166016 -2.021484 -87.128906 -50.771488 -20.744389 56.113281 -17.470703 -7.551760 2.802734 0.078125 -0.009779 72.207031 12.011719 0.558673 75.244141 26.464844 -6.977008 -32.568359 29.511721 29.257816 6.609253 20.114267 11.684115 5.698780 -6.258254 1.154141 0.092401 -4.134786 -21.038580 14.149032 -21.571898 -20.980322 13.626786 8.488981 -0.353621 -9.697640 -1.794411 6.143971 
-45.557625 5.595148 -53.739231 -4.082031 7.363281 54.317657 0.000000 0.000000 0.000000 12.675782 3.251953 4.424382 -8.447267 0.000000 0.000000 16.699219 -0.351563 35.097660 -2.812500 -0.087891 -0.009766 -73.613281 5.166016 -2.196385 -86.923828 -50.771488 -20.683592 56.113281 -17.470703 -7.727541 2.802734 0.078125 -0.009779 72.382813 12.021485 0.558676 75.156250 26.416014 -6.752391 -32.568359 29.511721 29.257816 6.609253 20.114269 11.684116 5.698772 -6.258261 1.154140 -0.043197 -4.136693 -21.053705 14.149031 -21.571896 -20.980322 13.626791 8.488974 -0.353622 -9.697753 -1.787701 6.136433 
-45.532021 5.597977 -53.745010 -4.082031 7.363281 54.141880 0.000000 0.000000 0.000000 12.675782 3.251953 4.424382 -8.447267 0.000000 0.000000 16.699219 -0.351563 35.273438 -2.812500 -0.087891 -0.009766 -73.613281 5.166016 -2.196385 -86.923828 -50.771488 -20.683592 56.113281 -17.470703 -7.727541 2.802734 0.078125 -0.009779 72.373047 12.021484 0.732422 75.156250 26.416014 -6.752391 -32.548828 29.335939 29.257813 6.609258 20.114269 11.684114 5.698774 -6.258257 1.154140 -0.028361 -4.004413 -21.386290 14.149026 -21.571899 -20.980328 13.626787 8.488979 -0.353621 -9.694522 -1.751751 6.164543 
-45.509361 5.600812 -53.747841 -4.082031 7.363281 54.141880 0.000000 0.000000 0.000000 12.500001 3.251953 4.590397 -8.447267 0.000000 0.000000 16.699219 -0.351563 35.273438 -2.812500 -0.087891 -0.009766 -73.613281 5.166016 -2.196385 -86.923828 -50.771488 -20.683592 56.093750 -17.294922 -7.551729 2.802734 0.078125 -0.009779 72.373047 12.021484 0.732422 75.244141 26.464844 -6.977008 -32.724609 29.326172 29.257813 6.609258 20.114269 11.684114 5.693888 -6.252556 1.329647 -0.131117 -4.221346 -21.280542 13.903864 -21.511955 -20.964729 13.653431 8.438410 -0.190003 -9.519287 -1.761773 6.158853 
